<?xml version="1.0" standalone="no"?>
<!DOCTYPE svg PUBLIC "-//W3C//DTD SVG 20010904//EN"
 "http://www.w3.org/TR/2001/REC-SVG-20010904/DTD/svg10.dtd">
<svg version="1.0" xmlns="http://www.w3.org/2000/svg"
 width="1000.000000pt" height="781.000000pt" viewBox="0 0 1000.000000 781.000000"
 preserveAspectRatio="xMidYMid meet">

<g transform="translate(0.000000,781.000000) scale(0.100000,-0.100000)"
fill="#FFFFFF" stroke="none">
<path d="M4082 5755 c-18 -19 -32 -39 -32 -45 0 -20 35 -10 56 17 l21 27 42
-19 c28 -12 45 -15 52 -8 12 12 -15 36 -60 52 -46 15 -44 16 -79 -24z"/>
<path d="M4870 5713 c0 -16 7 -86 15 -158 17 -151 18 -195 6 -195 -5 0 -80 75
-167 168 -87 92 -164 171 -172 176 -25 15 -31 -8 -22 -79 17 -143 31 -281 32
-322 0 -43 21 -74 38 -57 5 5 0 83 -11 183 -13 107 -17 177 -11 183 6 6 72
-57 173 -161 152 -159 180 -183 193 -163 2 4 -6 104 -20 222 -13 118 -24 218
-24 223 0 4 -7 7 -15 7 -10 0 -15 -10 -15 -27z"/>
<path d="M5130 5723 c0 -10 -7 -112 -15 -228 -11 -165 -12 -212 -2 -221 15
-15 298 -37 310 -25 21 21 -10 29 -131 36 -71 4 -135 11 -142 15 -10 6 -11 26
-4 92 l9 83 104 0 c70 0 106 4 108 12 6 17 -5 21 -102 28 -49 4 -93 9 -97 11
-5 3 -8 41 -8 85 0 99 0 99 165 88 116 -8 153 -2 130 20 -6 5 -81 12 -167 15
-148 7 -158 6 -158 -11z"/>
<path d="M5662 5663 c-18 -9 -40 -29 -48 -44 -37 -72 -2 -134 103 -184 81 -39
103 -64 103 -115 0 -70 -62 -109 -142 -89 -39 9 -57 21 -90 59 -23 27 -46 47
-50 44 -31 -19 42 -105 109 -128 61 -21 96 -20 142 4 64 32 87 107 55 176 -12
26 -32 41 -83 66 -84 40 -121 74 -121 109 0 41 9 58 43 75 58 30 164 -8 182
-66 9 -27 35 -25 35 2 0 29 -70 93 -110 102 -52 10 -93 7 -128 -11z"/>
<path d="M4220 5639 c-36 -11 -83 -24 -105 -30 -59 -16 -95 -31 -100 -39 -6
-9 -1 -28 69 -274 25 -88 50 -164 55 -169 14 -14 306 76 306 94 0 8 -9 13 -20
12 -20 -1 -31 -4 -162 -42 -93 -27 -99 -26 -111 7 -20 56 -40 127 -36 134 2 3
49 20 104 38 55 17 100 35 100 41 0 21 -32 20 -111 -5 -100 -32 -103 -32 -116
-3 -17 38 -36 124 -31 138 3 8 61 31 133 52 70 20 130 39 132 41 9 9 -8 26
-25 25 -9 0 -46 -10 -82 -20z"/>
<path d="M6081 5558 c-47 -129 -141 -421 -136 -426 18 -19 43 34 106 222 38
115 66 213 63 217 -9 16 -24 10 -33 -13z"/>
<path d="M3711 5470 c-57 -14 -114 -60 -144 -120 -25 -49 -28 -63 -24 -126 6
-114 65 -193 168 -229 58 -21 100 -19 161 8 57 25 118 86 118 116 0 27 -60
152 -76 158 -15 6 -118 -39 -128 -56 -13 -21 17 -22 61 -1 54 25 59 22 91 -53
l21 -47 -30 -34 c-65 -75 -174 -87 -261 -29 -53 36 -98 117 -98 179 0 54 32
126 72 159 34 29 117 56 147 48 11 -3 29 -2 38 2 17 6 17 7 -1 21 -21 15 -61
17 -115 4z"/>
<path d="M6304 5451 c-73 -45 -67 -143 13 -208 70 -57 91 -82 98 -113 15 -68
-53 -127 -123 -108 -55 15 -101 55 -123 105 -21 50 -45 50 -35 0 14 -69 116
-147 194 -147 44 0 91 36 114 87 27 62 14 109 -44 155 -81 64 -108 97 -108
132 0 91 133 104 199 20 12 -15 21 -35 21 -45 0 -22 18 -35 32 -21 11 11 -19
90 -43 108 -67 54 -142 68 -195 35z"/>
<path d="M3381 4883 c-120 -126 -219 -255 -304 -395 -162 -267 -280 -625 -314
-946 -3 -29 -9 -55 -14 -58 -15 -9 -11 -126 4 -122 6 3 13 20 14 39 5 70 36
278 59 390 80 397 279 769 583 1091 50 53 91 99 91 102 0 19 -29 -5 -119 -101z"/>
<path d="M6510 4976 c0 -3 41 -47 91 -98 311 -319 525 -738 599 -1171 11 -66
20 -134 20 -152 0 -39 8 -65 21 -65 10 0 8 22 -18 185 -71 464 -270 864 -609
1224 -42 44 -82 81 -90 81 -8 0 -14 -2 -14 -4z"/>
<path d="M4050 4151 c-290 -43 -548 -240 -651 -497 -39 -101 -53 -189 -46
-313 4 -90 10 -121 41 -203 47 -123 97 -198 193 -288 127 -118 254 -183 425
-215 118 -22 253 -17 373 14 87 23 253 103 318 154 138 107 180 147 319 302
38 43 293 353 360 439 41 52 190 197 242 236 205 151 398 170 634 63 59 -27
187 -149 227 -217 28 -48 65 -182 65 -239 0 -51 -35 -178 -65 -236 -44 -83
-204 -231 -250 -231 -8 0 -16 -4 -19 -9 -3 -5 -18 -11 -33 -14 -16 -3 -57 -13
-93 -22 -46 -12 -87 -15 -140 -12 -206 15 -366 101 -558 301 -45 47 -86 86
-91 86 -5 0 -16 -12 -26 -26 -9 -14 -26 -35 -38 -47 -12 -12 -37 -42 -55 -65
-39 -51 -44 -41 73 -156 130 -127 302 -242 432 -287 305 -106 638 -36 868 183
90 85 143 164 191 288 37 94 38 96 38 240 0 152 -5 182 -56 300 -63 147 -191
285 -339 367 -52 28 -114 57 -139 63 -25 6 -65 19 -90 27 -32 12 -83 16 -180
16 -126 1 -141 -1 -230 -32 -170 -58 -264 -122 -435 -296 -121 -123 -156 -163
-306 -355 -88 -111 -190 -230 -273 -319 -87 -91 -274 -231 -309 -231 -9 0 -18
-4 -21 -9 -3 -5 -18 -11 -33 -14 -16 -3 -57 -12 -93 -21 -36 -8 -89 -15 -118
-16 -55 0 -201 32 -256 56 -63 28 -142 91 -198 158 -50 59 -63 84 -88 165 -37
118 -38 184 -5 289 27 86 58 137 122 204 89 92 171 138 291 164 260 54 461
-42 717 -342 l90 -105 33 38 c19 21 54 64 78 96 52 68 57 53 -66 188 -230 251
-450 375 -679 384 -53 2 -121 0 -151 -4z"/>
<path d="M3260 2125 l0 -226 143 3 c118 3 142 5 142 18 0 12 -22 15 -128 18
l-128 3 3 87 3 87 93 3 c68 2 92 6 89 15 -2 8 -35 13 -95 15 l-92 3 0 84 0 85
125 0 c104 0 125 2 125 15 0 13 -22 15 -140 15 l-140 0 0 -225z"/>
<path d="M3692 2333 c-18 -9 -38 -25 -43 -36 -14 -26 -14 -79 0 -106 14 -25
72 -56 126 -66 21 -3 51 -15 66 -26 74 -52 26 -159 -71 -159 -37 0 -105 33
-113 55 -6 15 -37 22 -37 7 0 -17 34 -54 71 -77 116 -74 260 40 204 159 -21
43 -38 54 -119 73 -74 17 -106 44 -106 89 0 81 126 102 194 32 27 -29 47 -6
20 23 -45 50 -128 64 -192 32z"/>
<path d="M3962 2338 c3 -8 31 -15 74 -18 l69 -5 3 -207 c2 -189 9 -237 26
-192 3 9 6 103 6 209 l0 194 72 3 c46 2 73 7 76 16 3 9 -34 12 -163 12 -129 0
-166 -3 -163 -12z"/>
<path d="M4380 2182 c0 -159 1 -171 23 -202 31 -45 97 -80 152 -80 25 0 45 4
45 8 0 5 16 16 35 25 66 32 75 60 75 250 0 142 -2 167 -15 167 -13 0 -15 -24
-15 -155 0 -174 -7 -201 -63 -235 -57 -35 -135 -22 -182 30 -18 20 -21 40 -25
188 -4 120 -8 167 -17 170 -10 3 -13 -35 -13 -166z"/>
<path d="M4844 2337 c-2 -7 -3 -107 -2 -222 l3 -210 75 -3 c62 -2 82 1 115 19
55 30 84 57 106 101 61 119 13 264 -103 312 -47 20 -186 22 -194 3z m196 -37
c57 -29 92 -93 92 -169 0 -68 -17 -106 -66 -149 -39 -34 -78 -45 -146 -40
l-45 3 -3 175 c-1 96 0 180 2 187 9 21 120 17 166 -7z"/>
<path d="M5371 2328 c-5 -13 -44 -106 -85 -207 -42 -102 -76 -193 -76 -203 0
-40 26 -14 43 42 l17 61 116 -3 116 -3 22 -52 c26 -62 34 -72 45 -54 5 7 -7
48 -30 102 -22 49 -39 95 -39 102 0 8 -3 17 -7 21 -4 4 -26 53 -48 108 -22 56
-46 103 -53 106 -6 2 -16 -7 -21 -20z m73 -159 c21 -55 37 -102 35 -104 -8 -7
-179 -9 -180 -2 -1 8 56 156 73 190 17 34 34 15 72 -84z"/>
<path d="M5660 2125 c0 -193 2 -225 15 -225 13 0 15 27 15 181 0 140 3 180 13
177 11 -4 262 -331 271 -353 12 -34 18 29 19 222 2 188 0 218 -13 218 -13 0
-15 -27 -18 -172 -1 -96 -7 -173 -12 -173 -5 0 -66 79 -137 175 -70 96 -133
175 -140 175 -10 0 -13 -49 -13 -225z"/>
<path d="M6080 2335 c0 -12 14 -15 70 -15 l70 0 0 -197 c0 -194 8 -247 30
-213 5 9 10 100 10 212 l0 197 72 3 c46 2 73 7 76 16 3 9 -34 12 -162 12 -141
0 -166 -2 -166 -15z"/>
<path d="M6500 2124 c0 -176 3 -225 13 -222 9 4 13 60 15 226 2 193 0 222 -13
222 -13 0 -15 -30 -15 -226z"/>
<path d="M6662 2128 l3 -223 130 0 c109 0 130 2 130 15 0 12 -21 16 -117 18
l-118 3 0 204 c0 177 -2 205 -15 205 -13 0 -15 -29 -13 -222z"/>
</g>
</svg>
